<svg width="22" height="20" viewBox="0 0 22 20" fill="none" xmlns="http://www.w3.org/2000/svg">
<path id="Vector" d="M9.24501 1.66821L7.75998 2.21907C7.64181 2.26205 7.56302 2.37535 7.56302 2.50037C7.56302 2.62538 7.64181 2.73868 7.75998 2.78166L9.24501 3.33252L9.80042 4.80539C9.84375 4.9226 9.95798 5.00073 10.084 5.00073C10.2101 5.00073 10.3243 4.9226 10.3676 4.80539L10.9231 3.33252L12.4081 2.78166C12.5263 2.73868 12.605 2.62538 12.605 2.50037C12.605 2.37535 12.5263 2.26205 12.4081 2.21907L10.9231 1.66821L10.3676 0.195341C10.3243 0.0781364 10.2101 0 10.084 0C9.95798 0 9.84375 0.0781364 9.80042 0.195341L9.24501 1.66821ZM1.81591 15.4476C1.07931 16.1782 1.07931 17.3658 1.81591 18.1003L3.17883 19.4521C3.91544 20.1826 5.11292 20.1826 5.85347 19.4521L20.8732 4.55145C21.6098 3.82087 21.6098 2.6332 20.8732 1.89872L19.5102 0.550862C18.7736 -0.179714 17.5762 -0.179714 16.8356 0.550862L1.81591 15.4476ZM19.0888 3.22704L14.9527 7.3292L14.0349 6.41891L18.171 2.31675L19.0888 3.22704ZM0.295431 4.5788C0.118172 4.64521 0 4.8132 0 5.00073C0 5.18826 0.118172 5.35625 0.295431 5.42267L2.52101 6.25092L3.35609 8.45827C3.42306 8.63408 3.59244 8.75128 3.78151 8.75128C3.97059 8.75128 4.13997 8.63408 4.20693 8.45827L5.04202 6.25092L7.26759 5.42267C7.44485 5.35625 7.56302 5.18826 7.56302 5.00073C7.56302 4.8132 7.44485 4.64521 7.26759 4.5788L5.04202 3.75055L4.20693 1.54319C4.13997 1.36739 3.97059 1.25018 3.78151 1.25018C3.59244 1.25018 3.42306 1.36739 3.35609 1.54319L2.52101 3.75055L0.295431 4.5788ZM14.161 14.5803C13.9837 14.6467 13.8655 14.8147 13.8655 15.0022C13.8655 15.1897 13.9837 15.3577 14.161 15.4241L16.3866 16.2524L17.2216 18.4597C17.2886 18.6355 17.458 18.7527 17.6471 18.7527C17.8361 18.7527 18.0055 18.6355 18.0725 18.4597L18.9076 16.2524L21.1331 15.4241C21.3104 15.3577 21.4286 15.1897 21.4286 15.0022C21.4286 14.8147 21.3104 14.6467 21.1331 14.5803L18.9076 13.752L18.0725 11.5447C18.0055 11.3689 17.8361 11.2516 17.6471 11.2516C17.458 11.2516 17.2886 11.3689 17.2216 11.5447L16.3866 13.752L14.161 14.5803Z" fill="black"/>
</svg>
