<svg width="25" height="25" viewBox="0 0 25 25" fill="none" xmlns="http://www.w3.org/2000/svg">
<g id="Google">
<path d="M24.2626 12.776C24.2626 11.9603 24.1965 11.1402 24.0554 10.3377H12.737V14.9585H19.2185C18.9496 16.4488 18.0854 17.7672 16.8199 18.6049V21.6032H20.6868C22.9575 19.5132 24.2626 16.4268 24.2626 12.776Z" fill="#4285F4"/>
<path d="M12.737 24.5C15.9734 24.5 18.7026 23.4374 20.6912 21.6032L16.8243 18.6049C15.7485 19.3368 14.3596 19.7513 12.7414 19.7513C9.61091 19.7513 6.95658 17.6393 6.0042 14.7998H2.01389V17.8906C4.05093 21.9427 8.19997 24.5 12.737 24.5Z" fill="#34A853"/>
<path d="M5.99979 14.7998C5.49714 13.3095 5.49714 11.6957 5.99979 10.2054V7.11458H2.01389C0.31194 10.5052 0.31194 14.5 2.01389 17.8906L5.99979 14.7998Z" fill="#FBBC04"/>
<path d="M12.737 5.2495C14.4478 5.22304 16.1012 5.86679 17.3402 7.04845L20.7661 3.62251C18.5968 1.58547 15.7176 0.465535 12.737 0.500809C8.19997 0.500809 4.05093 3.05814 2.01389 7.11458L5.99979 10.2054C6.94776 7.3615 9.6065 5.2495 12.737 5.2495Z" fill="#EA4335"/>
</g>
</svg>
