<svg width="142" height="15" viewBox="0 0 142 15" fill="none" xmlns="http://www.w3.org/2000/svg">
<g id="Vector">
<path d="M37.228 8.86604L38.3675 10.0055C37.7275 10.7079 36.5568 11.2074 35.6202 11.2074C33.4037 11.2074 31.8428 9.6465 31.8428 7.46121C31.8428 5.27592 33.4037 3.69939 35.6202 3.69939C36.6036 3.69939 37.6963 4.19888 38.3675 4.9169L37.228 6.04077C36.8065 5.57249 36.1353 5.27592 35.5578 5.27592C34.3247 5.27592 33.4974 6.13442 33.4974 7.46121C33.4974 8.78799 34.3247 9.63089 35.5578 9.63089C36.1353 9.63089 36.8065 9.33431 37.228 8.86604Z" fill="#2BB197"/>
<path d="M42.941 3.69939C45.0482 3.69939 46.5311 5.26031 46.5311 7.46121C46.5311 9.66211 45.0482 11.223 42.941 11.223C40.8337 11.223 39.3508 9.6465 39.3508 7.46121C39.3508 5.27592 40.8337 3.69939 42.941 3.69939ZM44.8765 7.46121C44.8765 6.05638 44.0961 5.11982 42.941 5.11982C41.7859 5.11982 41.0054 6.04077 41.0054 7.46121C41.0054 8.88165 41.7703 9.80259 42.941 9.80259C44.1117 9.80259 44.8765 8.88165 44.8765 7.46121Z" fill="#2BB197"/>
<path d="M56.24 5.16665C55.2879 5.16665 54.6479 5.90029 54.6479 6.85245V11.1606H52.9777V6.93049C52.9777 5.86907 52.4158 5.16665 51.5885 5.16665C50.6363 5.16665 49.9651 5.97833 49.9651 7.02415V11.1606H48.3105V3.71499H49.9651V4.72959C50.4022 4.13644 51.0422 3.7306 51.7446 3.7306C52.6343 3.7306 53.5084 4.29254 53.9455 5.073C54.4606 4.29254 55.4596 3.7306 56.3493 3.7306C58.1131 3.7306 59.3306 5.04178 59.3306 6.86806V11.1606H57.6605V6.93049C57.6605 5.86907 57.0829 5.16665 56.24 5.16665Z" fill="#2BB197"/>
<path d="M69.3674 5.16665C68.4152 5.16665 67.7752 5.90029 67.7752 6.85245V11.1606H66.1051V6.93049C66.1051 5.86907 65.5431 5.16665 64.7158 5.16665C63.7637 5.16665 63.0925 5.97833 63.0925 7.02415V11.1606H61.4379V3.71499H63.0925V4.72959C63.5295 4.13644 64.1695 3.7306 64.8719 3.7306C65.7617 3.7306 66.6358 4.29254 67.0728 5.073C67.5879 4.29254 68.5869 3.7306 69.4766 3.7306C71.2405 3.7306 72.458 5.04178 72.458 6.86806V11.1606H70.7878V6.93049C70.7878 5.86907 70.2103 5.16665 69.3674 5.16665Z" fill="#2BB197"/>
<path d="M77.8588 3.69939C79.966 3.69939 81.4489 5.26031 81.4489 7.46121C81.4489 9.66211 79.966 11.223 77.8588 11.223C75.7516 11.223 74.2687 9.6465 74.2687 7.46121C74.2687 5.27592 75.7516 3.69939 77.8588 3.69939ZM79.7943 7.46121C79.7943 6.05638 79.0139 5.11982 77.8588 5.11982C76.7037 5.11982 75.9233 6.04077 75.9233 7.46121C75.9233 8.88165 76.6881 9.80259 77.8588 9.80259C79.0295 9.80259 79.7943 8.88165 79.7943 7.46121Z" fill="#2BB197"/>
<path d="M86.5453 5.15104C85.5307 5.16665 84.7503 5.96272 84.7659 7.05537V11.1606H83.1113V3.71499H84.7659V4.72959C85.2342 4.15205 86.0302 3.7306 86.7483 3.7306C88.1531 3.7306 89.8389 4.65155 89.8389 6.99293V11.1606H88.1843V7.05537C88.1843 5.86907 87.5755 5.15104 86.5453 5.15104Z" fill="#2BB197"/>
<path d="M100.313 8.86604L101.452 10.0055C100.812 10.7079 99.6415 11.2074 98.7049 11.2074C96.4884 11.2074 94.9275 9.6465 94.9275 7.46121C94.9275 5.27592 96.4884 3.69939 98.7049 3.69939C99.6883 3.69939 100.781 4.19888 101.452 4.9169L100.313 6.04077C99.8912 5.57249 99.22 5.27592 98.6425 5.27592C97.4093 5.27592 96.5821 6.13442 96.5821 7.46121C96.5821 8.78799 97.4093 9.63089 98.6425 9.63089C99.22 9.63089 99.8912 9.33431 100.313 8.86604Z" fill="#2BB197"/>
<path d="M102.436 7.47682C102.436 5.29153 103.903 3.7306 105.963 3.7306C106.697 3.7306 107.509 4.07401 108.102 4.77642V3.71499H109.756V11.1606H108.102V10.1616C107.509 10.9108 106.697 11.223 105.963 11.223C103.903 11.223 102.436 9.66211 102.436 7.47682ZM106.072 9.8182C107.165 9.8182 108.102 8.83482 108.117 7.47682C108.102 6.11881 107.165 5.13543 106.072 5.13543C104.886 5.13543 104.09 6.05638 104.09 7.47682C104.09 8.89726 104.886 9.8182 106.072 9.8182Z" fill="#2BB197"/>
<path d="M111.707 3.71499H113.362V4.80764C113.861 4.10522 114.767 3.63695 115.641 3.68378V5.21348C114.314 5.15104 113.362 6.32173 113.362 7.46121V11.1606H111.707V3.71499Z" fill="#2BB197"/>
<path d="M119.075 10.1304V11.1762H117.42V0H119.075V4.82325C119.762 3.91791 120.698 3.71499 121.245 3.71499C123.305 3.71499 124.788 5.27592 124.788 7.47682C124.788 9.67772 123.305 11.2386 121.229 11.2386C120.698 11.2386 119.762 11.0045 119.075 10.1304ZM121.135 9.84942C122.337 9.84942 123.133 8.91287 123.133 7.49243C123.133 6.07199 122.337 5.15104 121.135 5.15104C119.996 5.15104 119.075 6.19686 119.075 7.49243C119.075 8.78799 119.996 9.84942 121.135 9.84942Z" fill="#2BB197"/>
<path d="M129.83 3.69939C131.937 3.69939 133.42 5.26031 133.42 7.46121C133.42 9.66211 131.937 11.223 129.83 11.223C127.722 11.223 126.24 9.6465 126.24 7.46121C126.24 5.27592 127.722 3.69939 129.83 3.69939ZM131.773 7.46121C131.773 6.05638 130.993 5.11982 129.838 5.11982C128.682 5.11982 127.902 6.04077 127.902 7.46121C127.902 8.88165 128.667 9.80259 129.838 9.80259C131.008 9.80259 131.773 8.88165 131.773 7.46121Z" fill="#2BB197"/>
<path d="M138.524 5.15104C137.509 5.16665 136.729 5.96272 136.745 7.05537V11.1606H135.09V3.71499H136.745V4.72959C137.213 4.15205 138.009 3.7306 138.727 3.7306C140.132 3.7306 141.818 4.65155 141.818 6.99293V11.1606H140.163V7.05537C140.163 5.86907 139.554 5.15104 138.524 5.15104Z" fill="#2BB197"/>
<path d="M22.9143 2.2087C21.5876 0.881921 19.8159 0.148288 17.935 0.148288C16.0541 0.148288 14.2902 0.881921 12.9557 2.2087L12.4796 2.68479L12.0035 2.2087C10.6845 0.874116 8.92067 0.148288 7.03976 0.148288C5.15885 0.148288 3.39501 0.881921 2.06042 2.2087C0.733633 3.53549 0 5.30714 0 7.18024C0 9.05335 0.733633 10.825 2.06042 12.1596C3.43403 13.5332 5.23689 14.22 7.03976 14.22C8.84262 14.22 10.6455 13.5332 12.0191 12.1596L12.4952 11.6835L12.9713 12.1596C14.3449 13.5332 16.1477 14.22 17.9506 14.22C19.7535 14.22 21.5563 13.5332 22.9299 12.1596C25.6772 9.41236 25.6772 4.94812 22.9299 2.2087H22.9143ZM10.5674 10.5674C8.68653 12.4484 5.61932 12.5654 3.68378 10.7469C1.67019 8.85043 1.63897 5.67395 3.57451 3.7306C4.54228 2.76283 5.83785 2.25553 7.20366 2.30236C8.468 2.34919 9.66211 2.91112 10.5596 3.80084L12.0971 5.33835C12.144 5.4086 12.1908 5.47884 12.2532 5.53347L13.3615 6.63392L12.0893 8.25728L10.2631 6.431C9.84161 6.00955 9.16261 6.00955 8.74116 6.431C8.31972 6.85245 8.31972 7.53145 8.74116 7.9529L10.9655 10.1772L10.5674 10.5752V10.5674ZM21.2988 10.7391C19.3632 12.5732 16.296 12.4562 14.4073 10.5674L13.6815 9.84161L14.9536 8.21045L16.3194 9.56065C16.538 9.77918 16.8189 9.88064 17.0999 9.88064C17.3809 9.88064 17.6696 9.77137 17.8882 9.55284C18.3174 9.11578 18.3174 8.41337 17.8882 7.98412L14.0405 4.16766L14.4854 3.7228C15.5468 2.66137 17.0062 2.14627 18.5281 2.32577C19.3945 2.42723 20.2139 2.76283 20.9086 3.29355C23.328 5.15885 23.4607 8.68653 21.2988 10.7313V10.7391Z" fill="#2BB197"/>
</g>
</svg>
