<svg width="16" height="14" viewBox="0 0 16 14" fill="none" xmlns="http://www.w3.org/2000/svg">
<path id="Vector" d="M9.79375 0.0293723C10.6062 0.191858 11.1344 0.982412 10.9719 1.79484L10.9 2.15106C10.7344 2.98536 10.4281 3.77904 10 4.50085H14.5C15.3281 4.50085 16 5.17266 16 6.00071C16 6.57879 15.6719 7.08187 15.1906 7.33185C15.5312 7.60682 15.75 8.02866 15.75 8.50049C15.75 9.23168 15.225 9.841 14.5344 9.97223C14.6719 10.2003 14.75 10.4659 14.75 10.7503C14.75 11.4159 14.3156 11.9814 13.7156 12.1752C13.7375 12.2783 13.75 12.3876 13.75 12.5001C13.75 13.3282 13.0781 14 12.25 14H9.20312C8.60938 14 8.03125 13.825 7.5375 13.4969L6.33437 12.6939C5.5 12.1377 5 11.2002 5 10.1972V9.00045V7.50058V6.72252C5 5.81011 5.41563 4.95081 6.125 4.37898L6.35625 4.19462C7.18437 3.53218 7.75 2.60102 7.95625 1.56361L8.02812 1.20739C8.19063 0.394965 8.98125 -0.133113 9.79375 0.0293723ZM1 5.0008H3C3.55312 5.0008 4 5.44764 4 6.00071V13.0001C4 13.5532 3.55312 14 3 14H1C0.446875 14 0 13.5532 0 13.0001V6.00071C0 5.44764 0.446875 5.0008 1 5.0008Z" fill="#567DE8"/>
</svg>
