<svg width="11" height="14" viewBox="0 0 11 14" fill="none" xmlns="http://www.w3.org/2000/svg">
<path d="M1.83333 0C0.822135 0 0 0.784766 0 1.75V12.25C0 13.2152 0.822135 14 1.83333 14H9.16667C10.1779 14 11 13.2152 11 12.25V4.375H7.33333C6.8263 4.375 6.41667 3.98398 6.41667 3.5V0H1.83333ZM7.33333 0V3.5H11L7.33333 0ZM6.1875 6.34375V9.13555L7.07552 8.28789C7.34479 8.03086 7.78021 8.03086 8.04661 8.28789C8.31302 8.54492 8.31589 8.96055 8.04661 9.21484L5.98411 11.1836C5.71484 11.4406 5.27943 11.4406 5.01302 11.1836L2.95052 9.21484C2.68125 8.95781 2.68125 8.54219 2.95052 8.28789C3.21979 8.03359 3.65521 8.03086 3.92161 8.28789L4.80964 9.13555L4.8125 6.34375C4.8125 5.98008 5.11901 5.6875 5.5 5.6875C5.88099 5.6875 6.1875 5.98008 6.1875 6.34375Z" fill="#567DE8"/>
</svg>
