<svg width="14" height="14" viewBox="0 0 14 14" fill="none" xmlns="http://www.w3.org/2000/svg">
<path d="M0 1.75008C0 0.784799 0.784766 0 1.75 0H12.25C13.2152 0 14 0.784799 14 1.75008V9.62542C14 10.5907 13.2152 11.3755 12.25 11.3755H8.45742L5.075 13.9131C4.94375 14.0115 4.76602 14.0279 4.61563 13.9541C4.46523 13.8803 4.375 13.7299 4.375 13.5631V11.3755H1.75C0.784766 11.3755 0 10.5907 0 9.62542L0 1.75008ZM6.34375 8.0941C6.34375 8.45779 6.63633 8.75038 7 8.75038C7.36367 8.75038 7.65625 8.45779 7.65625 8.0941V6.34402H9.40625C9.76992 6.34402 10.0625 6.05143 10.0625 5.68775C10.0625 5.32406 9.76992 5.03147 9.40625 5.03147H7.65625V3.28139C7.65625 2.9177 7.36367 2.62511 7 2.62511C6.63633 2.62511 6.34375 2.9177 6.34375 3.28139V5.03147H4.59375C4.23008 5.03147 3.9375 5.32406 3.9375 5.68775C3.9375 6.05143 4.23008 6.34402 4.59375 6.34402H6.34375V8.0941Z" fill="#567DE8"/>
</svg>
