<svg width="11" height="12" viewBox="0 0 11 12" fill="none" xmlns="http://www.w3.org/2000/svg">
<path id="Vector" d="M5.10714 0H8.15424C8.46607 0 8.76562 0.119531 8.98661 0.330469L10.6538 1.92188C10.8748 2.13281 11 2.41875 11 2.71641V7.875C11 8.49609 10.4721 9 9.82143 9H5.10714C4.45647 9 3.92857 8.49609 3.92857 7.875V1.125C3.92857 0.503906 4.45647 0 5.10714 0ZM1.17857 3H3.14286V4.5H1.57143V10.5H6.28571V9.75H7.85714V10.875C7.85714 11.4961 7.32924 12 6.67857 12H1.17857C0.527902 12 0 11.4961 0 10.875V4.125C0 3.50391 0.527902 3 1.17857 3Z" fill="#567DE8"/>
</svg>
