<svg width="15" height="15" viewBox="0 0 15 15" fill="none" xmlns="http://www.w3.org/2000/svg">
<path id="Vector" d="M6.09375 12.188C6.09375 11.4116 5.46387 10.7817 4.6875 10.7817H1.875C1.61719 10.7817 1.40625 10.5708 1.40625 10.3129V1.87508C1.40625 1.61726 1.61719 1.40631 1.875 1.40631H13.125C13.3828 1.40631 13.5938 1.61726 13.5938 1.87508V10.3129C13.5938 10.5708 13.3828 10.7817 13.125 10.7817H9.06152C8.75684 10.7817 8.46094 10.8813 8.21777 11.063L6.09375 12.6568V12.188ZM6.08789 14.4205L6.09375 14.4147L9.06152 12.188H13.125C14.1592 12.188 15 11.3472 15 10.3129V1.87508C15 0.840857 14.1592 0 13.125 0H1.875C0.84082 0 0 0.840857 0 1.87508V10.3129C0 11.3472 0.84082 12.188 1.875 12.188H3.28125H4.6875V13.5943V13.7115V13.7203V13.9078V14.5319C4.6875 14.7106 4.78711 14.8717 4.94531 14.9508C5.10352 15.0299 5.29395 15.0124 5.4375 14.9069L5.93848 14.5319L6.08789 14.4205ZM7.5 2.34385C7.11035 2.34385 6.79688 2.65734 6.79688 3.04701V6.3284C6.79688 6.71806 7.11035 7.03155 7.5 7.03155C7.88965 7.03155 8.20312 6.71806 8.20312 6.3284V3.04701C8.20312 2.65734 7.88965 2.34385 7.5 2.34385ZM8.4375 8.90663C8.4375 8.65798 8.33873 8.41952 8.16291 8.24369C7.9871 8.06787 7.74864 7.96909 7.5 7.96909C7.25136 7.96909 7.0129 8.06787 6.83709 8.24369C6.66127 8.41952 6.5625 8.65798 6.5625 8.90663C6.5625 9.15528 6.66127 9.39375 6.83709 9.56958C7.0129 9.7454 7.25136 9.84417 7.5 9.84417C7.74864 9.84417 7.9871 9.7454 8.16291 9.56958C8.33873 9.39375 8.4375 9.15528 8.4375 8.90663Z" fill="#567DE8"/>
</svg>
