<svg width="16" height="14" viewBox="0 0 16 14" fill="none" xmlns="http://www.w3.org/2000/svg">
<path id="Vector" d="M6.20625 13.9706C5.39375 13.8081 4.86562 13.0176 5.02812 12.2052L5.1 11.8489C5.26562 11.0146 5.57187 10.221 6 9.49915H1.5C0.671875 9.49915 0 8.82734 0 7.99929C0 7.42121 0.328125 6.91813 0.809375 6.66815C0.46875 6.39318 0.25 5.97134 0.25 5.49951C0.25 4.76832 0.775 4.159 1.46562 4.02777C1.32812 3.79966 1.25 3.53406 1.25 3.24971C1.25 2.58414 1.68437 2.01857 2.28438 1.82484C2.2625 1.72172 2.25 1.61236 2.25 1.49987C2.25 0.671815 2.92188 0 3.75 0H6.79688C7.39062 0 7.96875 0.174984 8.4625 0.50308L9.66563 1.30613C10.5 1.86233 11 2.79975 11 3.80279V4.99955V6.49942V7.27747C11 8.18989 10.5844 9.04919 9.875 9.62102L9.64375 9.80537C8.81563 10.4678 8.25 11.399 8.04375 12.4364L7.97188 12.7926C7.80937 13.605 7.01875 14.1331 6.20625 13.9706ZM15 10.999H13C12.4469 10.999 12 10.5522 12 9.99911V2.99973C12 2.44666 12.4469 1.99982 13 1.99982H15C15.5531 1.99982 16 2.44666 16 2.99973V9.99911C16 10.5522 15.5531 10.999 15 10.999Z" fill="#567DE8"/>
</svg>
