<svg width="17" height="12" viewBox="0 0 17 12" fill="none" xmlns="http://www.w3.org/2000/svg">
<path d="M3.825 12C1.71328 12 0 10.2723 0 8.14286C0 6.46071 1.06781 5.03036 2.55531 4.50268C2.55266 4.43036 2.55 4.35804 2.55 4.28571C2.55 1.91786 4.45188 0 6.8 0C8.37516 0 9.74844 0.8625 10.4842 2.14821C10.888 1.875 11.3767 1.71429 11.9 1.71429C13.3078 1.71429 14.45 2.86607 14.45 4.28571C14.45 4.6125 14.3889 4.92321 14.28 5.2125C15.8312 5.52857 17 6.91339 17 8.57143C17 10.4652 15.478 12 13.6 12H3.825ZM5.92344 7.52679L8.04844 9.66964C8.29813 9.92143 8.70188 9.92143 8.94891 9.66964L11.0739 7.52679C11.3236 7.275 11.3236 6.86786 11.0739 6.61875C10.8242 6.36964 10.4205 6.36696 10.1734 6.61875L9.1375 7.66339V4.07143C9.1375 3.71518 8.85328 3.42857 8.5 3.42857C8.14672 3.42857 7.8625 3.71518 7.8625 4.07143V7.66339L6.82656 6.61875C6.57688 6.36696 6.17313 6.36696 5.92609 6.61875C5.67906 6.87054 5.67641 7.27768 5.92609 7.52679H5.92344Z" fill="#567DE8"/>
</svg>
