<svg width="280" height="25" viewBox="0 0 280 25" fill="none" xmlns="http://www.w3.org/2000/svg">
<path d="M268.134 10.796L268.87 7.17998H270.95L271.974 1.89998H277.798L276.774 7.17998H279.814L279.078 10.796H276.038L274.758 17.548C274.534 18.828 274.918 19.244 276.262 19.244C276.582 19.244 277.062 19.212 277.414 19.18L276.582 23.404C275.878 23.596 274.918 23.82 273.606 23.82C269.606 23.82 268.07 21.964 268.774 18.348L270.214 10.796H268.134Z" fill="#1755FF"/>
<path d="M257.804 7.17998L257.292 9.73998H257.388C258.604 7.97998 260.46 6.66798 262.796 6.66798C266.156 6.66798 268.108 9.13198 267.212 13.708L265.324 23.5H259.372L261.228 13.996C261.516 12.556 261.164 11.436 259.596 11.436C258.124 11.436 256.972 12.78 256.62 14.508L254.892 23.5H248.94L252.108 7.17998H257.804Z" fill="#1755FF"/>
<path d="M242.113 23.5C241.953 23.116 241.857 22.412 241.857 21.708H241.793C240.577 23.212 238.881 23.916 237.409 23.916C234.209 23.916 232.353 22.092 232.353 19.308C232.353 15.66 234.817 14.156 238.785 13.932C242.177 13.74 243.649 13.484 243.649 11.884C243.649 11.212 243.233 10.604 242.113 10.604C240.737 10.604 239.937 11.276 239.617 12.556H233.953C234.593 9.09998 237.121 6.66798 242.465 6.66798C244.225 6.66798 246.017 6.89198 247.393 7.78798C248.897 8.77998 249.857 10.572 249.249 13.612L247.841 20.812C247.553 22.188 247.617 22.924 247.937 23.244L247.905 23.5H242.113ZM239.873 20.3C241.121 20.3 242.273 19.692 242.689 17.644L242.977 16.204C242.337 16.492 241.569 16.684 240.545 16.844C239.457 17.004 238.081 17.292 238.081 18.796C238.081 19.884 238.785 20.3 239.873 20.3Z" fill="#1755FF"/>
<path d="M222.384 10.796L223.12 7.17998H225.2L226.224 1.89998H232.048L231.024 7.17998H234.064L233.328 10.796H230.288L229.008 17.548C228.784 18.828 229.168 19.244 230.512 19.244C230.832 19.244 231.312 19.212 231.664 19.18L230.832 23.404C230.128 23.596 229.168 23.82 227.856 23.82C223.856 23.82 222.32 21.964 223.024 18.348L224.464 10.796H222.384Z" fill="#1755FF"/>
<path d="M213.629 24.044C209.917 24.044 205.725 22.892 205.757 18.22H211.389C211.421 19.5 212.029 20.364 213.821 20.364C214.909 20.364 215.709 19.98 215.709 19.02C215.709 17.868 214.173 17.708 212.221 17.196C209.213 16.428 207.165 15.34 207.165 12.396C207.165 8.65198 210.525 6.66798 214.877 6.66798C218.461 6.66798 222.013 7.81998 222.141 11.724H216.669C216.573 10.668 215.773 10.252 214.621 10.252C213.693 10.252 212.765 10.604 212.765 11.372C212.765 12.172 213.693 12.524 215.805 13.004C218.557 13.644 221.405 14.636 221.405 17.9C221.405 21.996 218.365 24.044 213.629 24.044Z" fill="#1755FF"/>
<path d="M198.003 23.5L201.171 7.17998H207.123L203.955 23.5H198.003ZM201.555 5.19598L202.419 0.61998H208.371L207.507 5.19598H201.555Z" fill="#1755FF"/>
<path d="M190.222 24.044C186.51 24.044 182.318 22.892 182.35 18.22H187.982C188.014 19.5 188.622 20.364 190.414 20.364C191.502 20.364 192.302 19.98 192.302 19.02C192.302 17.868 190.766 17.708 188.814 17.196C185.806 16.428 183.758 15.34 183.758 12.396C183.758 8.65198 187.118 6.66798 191.47 6.66798C195.054 6.66798 198.606 7.81998 198.734 11.724H193.262C193.166 10.668 192.366 10.252 191.214 10.252C190.286 10.252 189.358 10.604 189.358 11.372C189.358 12.172 190.286 12.524 192.398 13.004C195.15 13.644 197.998 14.636 197.998 17.9C197.998 21.996 194.958 24.044 190.222 24.044Z" fill="#1755FF"/>
<path d="M174.41 24.044C170.698 24.044 166.506 22.892 166.538 18.22H172.17C172.202 19.5 172.81 20.364 174.602 20.364C175.69 20.364 176.49 19.98 176.49 19.02C176.49 17.868 174.954 17.708 173.002 17.196C169.994 16.428 167.946 15.34 167.946 12.396C167.946 8.65198 171.306 6.66798 175.658 6.66798C179.242 6.66798 182.794 7.81998 182.922 11.724H177.45C177.354 10.668 176.554 10.252 175.402 10.252C174.474 10.252 173.546 10.604 173.546 11.372C173.546 12.172 174.474 12.524 176.586 13.004C179.338 13.644 182.186 14.636 182.186 17.9C182.186 21.996 179.146 24.044 174.41 24.044Z" fill="#1755FF"/>
<path d="M159.642 23.5L159.162 20.108H151.514L149.818 23.5H143.162L155.61 0.61998H162.298L166.522 23.5H159.642ZM156.122 10.988L153.818 15.564H158.522L157.882 10.988C157.722 9.86798 157.562 8.04398 157.562 8.04398H157.498C157.498 8.04398 156.666 9.86798 156.122 10.988Z" fill="#1755FF"/>
<path d="M131.603 23.5L136.019 0.61998H142.611L138.195 23.5H131.603Z" fill="#1755FF"/>
<path d="M124.111 23.5L123.631 20.108H115.983L114.287 23.5H107.631L120.079 0.61998H126.767L130.991 23.5H124.111ZM120.591 10.988L118.287 15.564H122.991L122.351 10.988C122.191 9.86798 122.031 8.04398 122.031 8.04398H121.967C121.967 8.04398 121.135 9.86798 120.591 10.988Z" fill="#1755FF"/>
<path d="M95.5231 7.17998L95.0111 9.73998H95.1071C96.3231 7.97998 98.1791 6.66798 100.515 6.66798C103.875 6.66798 105.827 9.13198 104.931 13.708L103.043 23.5H97.0911L98.9471 13.996C99.2351 12.556 98.8831 11.436 97.3151 11.436C95.8431 11.436 94.6911 12.78 94.3391 14.508L92.6111 23.5H86.6591L89.8271 7.17998H95.5231Z" fill="#1755FF"/>
<path d="M77.7746 24.012C73.7426 24.012 69.6786 21.772 69.6786 16.652C69.6786 11.116 73.3906 6.69998 79.1826 6.69998C83.3426 6.69998 87.3426 8.97198 87.3746 14.124C87.4066 19.756 83.6306 24.012 77.7746 24.012ZM75.6626 16.876C75.6626 18.54 76.1746 19.98 77.8706 19.98C80.4946 19.98 81.3586 16.172 81.3266 13.932C81.3266 12.332 80.7826 10.764 79.0546 10.764C76.4626 10.764 75.6306 14.796 75.6626 16.876Z" fill="#1755FF"/>
<path d="M61.5771 24.044C59.4971 24.044 57.5131 23.212 56.6171 21.036H56.5531L56.1051 23.5H50.4091L54.8251 0.61998H60.7771L59.2091 8.74798H59.3051C60.5851 7.43598 61.9291 6.66798 63.8491 6.66798C67.5291 6.66798 69.5451 9.77198 69.5451 13.836C69.5451 18.412 67.0171 24.044 61.5771 24.044ZM57.7051 16.14C57.7051 17.804 58.2491 19.5 60.1371 19.5C62.6011 19.5 63.5611 16.46 63.5611 14.156C63.5611 12.684 63.1451 10.988 61.3851 10.988C58.9211 10.988 57.7051 13.868 57.7051 16.14Z" fill="#1755FF"/>
<path d="M46.8356 7.17998L46.2916 9.89998H46.3876C47.7956 7.72398 49.4916 6.82798 51.5076 6.82798C51.9876 6.82798 52.4356 6.89198 52.6276 6.98798L51.6356 12.14H51.5076C47.8916 11.564 45.9396 13.036 45.1396 17.164L43.9236 23.5H37.9716L41.1396 7.17998H46.8356Z" fill="#1755FF"/>
<path d="M31.1439 23.5C30.9839 23.116 30.8879 22.412 30.8879 21.708H30.8239C29.6079 23.212 27.9119 23.916 26.4399 23.916C23.2399 23.916 21.3839 22.092 21.3839 19.308C21.3839 15.66 23.8479 14.156 27.8159 13.932C31.2079 13.74 32.6799 13.484 32.6799 11.884C32.6799 11.212 32.2639 10.604 31.1439 10.604C29.7679 10.604 28.9679 11.276 28.6479 12.556H22.9839C23.6239 9.09998 26.1519 6.66798 31.4959 6.66798C33.2559 6.66798 35.0479 6.89198 36.4239 7.78798C37.9279 8.77998 38.8879 10.572 38.2799 13.612L36.8719 20.812C36.5839 22.188 36.6479 22.924 36.9679 23.244L36.9359 23.5H31.1439ZM28.9039 20.3C30.1519 20.3 31.3039 19.692 31.7199 17.644L32.0079 16.204C31.3679 16.492 30.5999 16.684 29.5759 16.844C28.4879 17.004 27.1119 17.292 27.1119 18.796C27.1119 19.884 27.8159 20.3 28.9039 20.3Z" fill="#1755FF"/>
<path d="M10.7536 24.044C4.44962 24.044 0.161621 20.588 0.161621 13.868C0.161621 6.50798 5.05762 0.203979 12.6096 0.203979C15.5536 0.203979 17.6656 0.77998 19.2336 1.96398C21.3776 3.56398 22.4016 6.02798 22.5296 9.09998H15.9056C15.8736 7.11598 14.8496 5.67598 12.5136 5.67598C8.54562 5.67598 6.88162 9.89998 6.88162 13.708C6.88162 16.3 7.90562 18.604 10.7856 18.604C12.8976 18.604 14.5296 17.388 15.0736 14.988H21.7936C20.6416 21.228 15.9056 24.044 10.7536 24.044Z" fill="#1755FF"/>
</svg>
