<svg width="39" height="40" viewBox="0 0 39 40" fill="none" xmlns="http://www.w3.org/2000/svg">
<path id="Vector" d="M5.03226 37.5H8.80645V40H5.03226C2.25665 40 0 37.7578 0 35V5C0 2.24219 2.25665 0 5.03226 0H17.3063C18.3048 0 19.2641 0.398438 19.9718 1.10156L29.0849 10.1484C29.7925 10.8516 30.1935 11.8047 30.1935 12.7969V23.75H27.6774V15H18.871C16.7873 15 15.0968 13.3203 15.0968 11.25V2.5H5.03226C3.64052 2.5 2.51613 3.61719 2.51613 5V35C2.51613 36.3828 3.64052 37.5 5.03226 37.5ZM27.6381 12.5C27.5831 12.2813 27.473 12.0781 27.3079 11.9219L18.1948 2.86719C18.0296 2.70313 17.8331 2.59375 17.6129 2.53906V11.25C17.6129 11.9375 18.179 12.5 18.871 12.5H27.6381ZM13.8387 27.5H16.3548C18.7845 27.5 20.7581 29.4609 20.7581 31.875C20.7581 34.2891 18.7845 36.25 16.3548 36.25H15.0968V38.75C15.0968 39.4375 14.5306 40 13.8387 40C13.1468 40 12.5806 39.4375 12.5806 38.75V35V28.75C12.5806 28.0625 13.1468 27.5 13.8387 27.5ZM16.3548 33.75C17.4006 33.75 18.2419 32.9141 18.2419 31.875C18.2419 30.8359 17.4006 30 16.3548 30H15.0968V33.75H16.3548ZM23.9032 27.5H26.4194C28.503 27.5 30.1935 29.1797 30.1935 31.25V36.25C30.1935 38.3203 28.503 40 26.4194 40H23.9032C23.2113 40 22.6452 39.4375 22.6452 38.75V28.75C22.6452 28.0625 23.2113 27.5 23.9032 27.5ZM26.4194 37.5C27.1113 37.5 27.6774 36.9375 27.6774 36.25V31.25C27.6774 30.5625 27.1113 30 26.4194 30H25.1613V37.5H26.4194ZM32.7097 28.75C32.7097 28.0625 33.2758 27.5 33.9677 27.5H37.7419C38.4339 27.5 39 28.0625 39 28.75C39 29.4375 38.4339 30 37.7419 30H35.2258V32.5H37.7419C38.4339 32.5 39 33.0625 39 33.75C39 34.4375 38.4339 35 37.7419 35H35.2258V38.75C35.2258 39.4375 34.6597 40 33.9677 40C33.2758 40 32.7097 39.4375 32.7097 38.75V33.75V28.75Z" fill="black"/>
</svg>
