<svg width="51" height="40" viewBox="0 0 51 40" fill="none" xmlns="http://www.w3.org/2000/svg">
<path id="Vector" d="M25.3333 2.5C26.7161 2.5 27.8333 3.61719 27.8333 5V35C27.8333 36.3828 26.7161 37.5 25.3333 37.5H20.3333V32.5C20.3333 29.7422 18.0911 27.5 15.3333 27.5C12.5754 27.5 10.3333 29.7422 10.3333 32.5V37.5H5.33325C3.95044 37.5 2.83325 36.3828 2.83325 35V5C2.83325 3.61719 3.95044 2.5 5.33325 2.5H25.3333ZM15.3333 30C16.7161 30 17.8333 31.1172 17.8333 32.5V37.5H12.8333V32.5C12.8333 31.1172 13.9504 30 15.3333 30ZM5.33325 40H10.3333H12.8333H17.8333H20.3333H25.3333C28.0911 40 30.3333 37.7578 30.3333 35V5C30.3333 2.24219 28.0911 0 25.3333 0H5.33325C2.57544 0 0.333252 2.24219 0.333252 5V35C0.333252 37.7578 2.57544 40 5.33325 40ZM7.20825 7.5C6.16919 7.5 5.33325 8.33594 5.33325 9.375V13.125C5.33325 14.1641 6.16919 15 7.20825 15H10.9583C11.9973 15 12.8333 14.1641 12.8333 13.125V9.375C12.8333 8.33594 11.9973 7.5 10.9583 7.5H7.20825ZM7.83325 12.5V10H10.3333V12.5H7.83325ZM17.8333 9.375V13.125C17.8333 14.1641 18.6692 15 19.7083 15H23.4583C24.4973 15 25.3333 14.1641 25.3333 13.125V9.375C25.3333 8.33594 24.4973 7.5 23.4583 7.5H19.7083C18.6692 7.5 17.8333 8.33594 17.8333 9.375ZM20.3333 10H22.8333V12.5H20.3333V10ZM7.20825 17.5C6.16919 17.5 5.33325 18.3359 5.33325 19.375V23.125C5.33325 24.1641 6.16919 25 7.20825 25H10.9583C11.9973 25 12.8333 24.1641 12.8333 23.125V19.375C12.8333 18.3359 11.9973 17.5 10.9583 17.5H7.20825ZM7.83325 22.5V20H10.3333V22.5H7.83325ZM17.8333 19.375V23.125C17.8333 24.1641 18.6692 25 19.7083 25H23.4583C24.4973 25 25.3333 24.1641 25.3333 23.125V19.375C25.3333 18.3359 24.4973 17.5 23.4583 17.5H19.7083C18.6692 17.5 17.8333 18.3359 17.8333 19.375ZM20.3333 20H22.8333V22.5H20.3333V20ZM49.0833 15H47.8333C45.2239 15 42.927 16.3281 41.5833 18.3516C40.2395 16.3281 37.9426 15 35.3333 15H34.0833C33.3958 15 32.8333 15.5625 32.8333 16.25V17.5C32.8333 19.4219 33.552 21.1719 34.7395 22.5H34.0833C33.3958 22.5 32.8333 23.0625 32.8333 23.75V25C32.8333 26.9219 33.552 28.6719 34.7395 30H34.0833C33.3958 30 32.8333 30.5625 32.8333 31.25V32.5C32.8333 36.6406 36.1926 40 40.3333 40H41.5833H42.8333C46.9739 40 50.3333 36.6406 50.3333 32.5V31.25C50.3333 30.5625 49.7708 30 49.0833 30H48.427C49.6145 28.6719 50.3333 26.9219 50.3333 25V23.75C50.3333 23.0625 49.7708 22.5 49.0833 22.5H48.427C49.6145 21.1719 50.3333 19.4219 50.3333 17.5V16.25C50.3333 15.5625 49.7708 15 49.0833 15ZM42.8333 22.5C42.8333 19.7422 45.0754 17.5 47.8333 17.5C47.8333 20.2578 45.5911 22.5 42.8333 22.5ZM40.3333 22.5C37.5754 22.5 35.3333 20.2578 35.3333 17.5C38.0911 17.5 40.3333 19.7422 40.3333 22.5ZM41.5833 25H42.2395C41.9973 25.2656 41.7786 25.5547 41.5833 25.8516C41.3801 25.5547 41.1614 25.2656 40.927 25H41.5833ZM41.5833 33.3516C41.3801 33.0547 41.1614 32.7656 40.927 32.5H41.5833H42.2395C41.9973 32.7656 41.7786 33.0547 41.5833 33.3516ZM42.8333 30C42.8333 27.2422 45.0754 25 47.8333 25C47.8333 27.7578 45.5911 30 42.8333 30ZM40.3333 30C37.5754 30 35.3333 27.7578 35.3333 25C38.0911 25 40.3333 27.2422 40.3333 30ZM42.8333 37.5C42.8333 34.7422 45.0754 32.5 47.8333 32.5C47.8333 35.2578 45.5911 37.5 42.8333 37.5ZM40.3333 37.5C37.5754 37.5 35.3333 35.2578 35.3333 32.5C38.0911 32.5 40.3333 34.7422 40.3333 37.5ZM41.5833 2.5C40.8958 2.5 40.3333 3.0625 40.3333 3.75V12.5C40.3333 13.1875 40.8958 13.75 41.5833 13.75C42.2708 13.75 42.8333 13.1875 42.8333 12.5V3.75C42.8333 3.0625 42.2708 2.5 41.5833 2.5ZM46.5833 6.25C45.8958 6.25 45.3333 6.8125 45.3333 7.5V11.25C45.3333 11.9375 45.8958 12.5 46.5833 12.5C47.2708 12.5 47.8333 11.9375 47.8333 11.25V7.5C47.8333 6.8125 47.2708 6.25 46.5833 6.25ZM35.3333 11.25C35.3333 11.9375 35.8958 12.5 36.5833 12.5C37.2708 12.5 37.8333 11.9375 37.8333 11.25V7.5C37.8333 6.8125 37.2708 6.25 36.5833 6.25C35.8958 6.25 35.3333 6.8125 35.3333 7.5V11.25Z" fill="black"/>
</svg>
