<svg width="41" height="40" viewBox="0 0 41 40" fill="none" xmlns="http://www.w3.org/2000/svg">
<path id="Vector" d="M13.4432 36.2596C8.90732 37.7686 6.0947 37.1614 4.80894 35.8667C3.52317 34.572 2.90707 31.7594 4.41606 27.2324C4.89823 25.786 5.5679 24.2591 6.42508 22.6876C7.92514 24.8127 9.702 26.9199 11.7289 28.9468C13.7557 30.9737 15.863 32.7505 17.9881 34.2506C16.4166 35.1078 14.8897 35.7864 13.4432 36.2596ZM2.78206 2.11532C-0.718083 5.61546 0.27303 12.6693 4.66607 20C0.27303 27.3307 -0.718083 34.3845 2.78206 37.8847C6.28221 41.3848 13.3361 40.3937 20.6667 36.0007C27.9974 40.3937 35.0513 41.3848 38.5514 37.8847C42.0516 34.3845 41.0605 27.3307 36.6674 20C41.0605 12.6693 42.0516 5.61546 38.5514 2.11532C35.0513 -1.38483 27.9974 -0.393718 20.6667 3.99933C13.3361 -0.393718 6.28221 -1.38483 2.78206 2.11532ZM13.7468 26.9199C11.4878 24.6609 9.58592 22.3126 8.05014 20C9.58592 17.6874 11.4967 15.3302 13.7468 13.0801C15.9969 10.83 18.3542 8.91918 20.6667 7.3834C22.9793 8.91918 25.3366 10.83 27.5867 13.0801C29.8368 15.3302 31.7476 17.6874 33.2834 20C31.7476 22.3126 29.8368 24.6698 27.5867 26.9199C25.3366 29.17 22.9793 31.0808 20.6667 32.6166C18.3542 31.0808 15.9969 29.17 13.7468 26.9199ZM11.7199 11.0532C9.69307 13.0801 7.91621 15.1873 6.41615 17.3124C5.55897 15.7409 4.88037 14.214 4.40713 12.7676C2.89814 8.23165 3.51424 5.41903 4.80001 4.13326C6.08578 2.84749 8.90732 2.23139 13.4343 3.74039C14.8808 4.22255 16.4076 4.89222 17.9791 5.7494C15.854 7.24946 13.7468 9.02632 11.7199 11.0532ZM29.6046 11.0532C27.5778 9.02632 25.4705 7.24946 23.3454 5.7494C24.9169 4.89222 26.4438 4.21362 27.8903 3.74039C32.4262 2.23139 35.2388 2.84749 36.5246 4.13326C37.8103 5.41903 38.4264 8.24057 36.9174 12.7676C36.4353 14.214 35.7656 15.7409 34.9084 17.3124C33.4084 15.1873 31.6315 13.0801 29.6046 11.0532ZM29.6046 28.9379C31.6315 26.911 33.4084 24.8038 34.9084 22.6787C35.7656 24.2502 36.4442 25.777 36.9174 27.2235C38.4264 31.7594 37.8193 34.572 36.5246 35.8578C35.2299 37.1436 32.4172 37.7597 27.8903 36.2507C26.4438 35.7685 24.9169 35.0989 23.3454 34.2417C25.4705 32.7416 27.5778 30.9647 29.6046 28.9379ZM20.6667 22.1429C21.2351 22.1429 21.7802 21.9172 22.182 21.5153C22.5839 21.1134 22.8097 20.5683 22.8097 20C22.8097 19.4317 22.5839 18.8866 22.182 18.4847C21.7802 18.0828 21.2351 17.8571 20.6667 17.8571C20.0984 17.8571 19.5533 18.0828 19.1515 18.4847C18.7496 18.8866 18.5238 19.4317 18.5238 20C18.5238 20.5683 18.7496 21.1134 19.1515 21.5153C19.5533 21.9172 20.0984 22.1429 20.6667 22.1429Z" fill="black"/>
</svg>
