<svg width="220" height="22" viewBox="0 0 220 22" fill="none" xmlns="http://www.w3.org/2000/svg">
<g id="Layer_1-2">
<path id="Vector" d="M57.5952 13.7161L59.3581 15.479C58.368 16.5657 56.5568 17.3385 55.1078 17.3385C51.6786 17.3385 49.2637 14.9235 49.2637 11.5426C49.2637 8.16174 51.6786 5.72266 55.1078 5.72266C56.6292 5.72266 58.3197 6.49543 59.3581 7.6063L57.5952 9.34505C56.9431 8.62057 55.9047 8.16174 55.0112 8.16174C53.1034 8.16174 51.8235 9.48995 51.8235 11.5426C51.8235 13.5953 53.1034 14.8994 55.0112 14.8994C55.9047 14.8994 56.9431 14.4405 57.5952 13.7161Z" fill="white"/>
<path id="Vector_2" d="M66.4352 5.72266C69.6954 5.72266 71.9895 8.13759 71.9895 11.5426C71.9895 14.9477 69.6954 17.3626 66.4352 17.3626C63.175 17.3626 60.8809 14.9235 60.8809 11.5426C60.8809 8.16174 63.175 5.72266 66.4352 5.72266ZM69.4297 11.5426C69.4297 9.3692 68.2222 7.92024 66.4352 7.92024C64.6482 7.92024 63.4407 9.34505 63.4407 11.5426C63.4407 13.7402 64.624 15.165 66.4352 15.165C68.2464 15.165 69.4297 13.7402 69.4297 11.5426Z" fill="white"/>
<path id="Vector_3" d="M87.01 7.99393C85.5369 7.99393 84.5468 9.12895 84.5468 10.6021V17.2673H81.9628V10.7228C81.9628 9.08065 81.0934 7.99393 79.8135 7.99393C78.3404 7.99393 77.302 9.24969 77.302 10.8677V17.2673H74.7422V5.74805H77.302V7.31775C77.9782 6.40008 78.9683 5.7722 80.055 5.7722C81.4315 5.7722 82.7839 6.64157 83.4601 7.84903C84.257 6.64157 85.8026 5.7722 87.1791 5.7722C89.9079 5.7722 91.7916 7.80074 91.7916 10.6262V17.2673H89.2076V10.7228C89.2076 9.08065 88.3141 7.99393 87.01 7.99393Z" fill="white"/>
<path id="Vector_4" d="M107.319 7.99393C105.846 7.99393 104.855 9.12895 104.855 10.6021V17.2673H102.271V10.7228C102.271 9.08065 101.402 7.99393 100.122 7.99393C98.649 7.99393 97.6106 9.24969 97.6106 10.8677V17.2673H95.0508V5.74805H97.6106V7.31775C98.2868 6.40008 99.2769 5.7722 100.364 5.7722C101.74 5.7722 103.092 6.64157 103.769 7.84903C104.566 6.64157 106.111 5.7722 107.488 5.7722C110.217 5.7722 112.1 7.80074 112.1 10.6262V17.2673H109.516V10.7228C109.516 9.08065 108.623 7.99393 107.319 7.99393Z" fill="white"/>
<path id="Vector_5" d="M120.457 5.72266C123.717 5.72266 126.011 8.13759 126.011 11.5426C126.011 14.9477 123.717 17.3626 120.457 17.3626C117.197 17.3626 114.902 14.9235 114.902 11.5426C114.902 8.16174 117.197 5.72266 120.457 5.72266ZM123.451 11.5426C123.451 9.3692 122.244 7.92024 120.457 7.92024C118.67 7.92024 117.462 9.34505 117.462 11.5426C117.462 13.7402 118.645 15.165 120.457 15.165C122.268 15.165 123.451 13.7402 123.451 11.5426Z" fill="white"/>
<path id="Vector_6" d="M133.895 7.96978C132.325 7.99393 131.118 9.22554 131.142 10.916V17.2673H128.582V5.74805H131.142V7.31775C131.866 6.42423 133.098 5.7722 134.209 5.7722C136.382 5.7722 138.99 7.197 138.99 10.8194V17.2673H136.431V10.916C136.431 9.08065 135.489 7.96978 133.895 7.96978Z" fill="white"/>
<path id="Vector_7" d="M155.195 13.7161L156.958 15.479C155.968 16.5657 154.156 17.3385 152.707 17.3385C149.278 17.3385 146.863 14.9235 146.863 11.5426C146.863 8.16174 149.278 5.72266 152.707 5.72266C154.229 5.72266 155.919 6.49543 156.958 7.6063L155.195 9.34505C154.543 8.62057 153.504 8.16174 152.611 8.16174C150.703 8.16174 149.423 9.48995 149.423 11.5426C149.423 13.5953 150.703 14.8994 152.611 14.8994C153.504 14.8994 154.543 14.4405 155.195 13.7161Z" fill="white"/>
<path id="Vector_8" d="M158.48 11.568C158.48 8.18712 160.751 5.7722 163.938 5.7722C165.073 5.7722 166.329 6.30348 167.247 7.3902V5.74805H169.806V17.2673H167.247V15.7217C166.329 16.8809 165.073 17.3639 163.938 17.3639C160.751 17.3639 158.48 14.9489 158.48 11.568ZM164.107 15.1904C165.798 15.1904 167.247 13.669 167.271 11.568C167.247 9.46704 165.798 7.94563 164.107 7.94563C162.272 7.94563 161.04 9.37044 161.04 11.568C161.04 13.7656 162.272 15.1904 164.107 15.1904Z" fill="white"/>
<path id="Vector_9" d="M172.824 5.74664H175.384V7.43709C176.157 6.35037 177.557 5.62589 178.91 5.69834V8.06497C176.857 7.96837 175.384 9.77957 175.384 11.5425V17.2658H172.824V5.74664Z" fill="white"/>
<path id="Vector_10" d="M184.222 15.6729V17.2909H181.662V0H184.222V7.46213C185.285 6.06147 186.733 5.74753 187.579 5.74753C190.766 5.74753 193.061 8.16246 193.061 11.5675C193.061 14.9726 190.766 17.3875 187.555 17.3875C186.733 17.3875 185.285 17.0252 184.222 15.6729ZM187.41 15.2382C189.269 15.2382 190.501 13.7892 190.501 11.5917C190.501 9.39407 189.269 7.96927 187.41 7.96927C185.647 7.96927 184.222 9.58727 184.222 11.5917C184.222 13.5961 185.647 15.2382 187.41 15.2382Z" fill="white"/>
<path id="Vector_11" d="M200.861 5.72266C204.121 5.72266 206.415 8.13759 206.415 11.5426C206.415 14.9477 204.121 17.3626 200.861 17.3626C197.601 17.3626 195.307 14.9235 195.307 11.5426C195.307 8.16174 197.601 5.72266 200.861 5.72266ZM203.855 11.5426C203.855 9.3692 202.648 7.92024 200.861 7.92024C199.074 7.92024 197.866 9.34505 197.866 11.5426C197.866 13.7402 199.05 15.165 200.861 15.165C202.672 15.165 203.855 13.7402 203.855 11.5426Z" fill="white"/>
<path id="Vector_12" d="M214.313 7.96978C212.743 7.99393 211.536 9.22554 211.56 10.916V17.2673H209V5.74805H211.56V7.31775C212.284 6.42423 213.516 5.7722 214.627 5.7722C216.8 5.7722 219.408 7.197 219.408 10.8194V17.2673H216.849V10.916C216.849 9.08065 215.907 7.96978 214.313 7.96978Z" fill="white"/>
<path id="Vector_13" d="M35.4512 3.41622C33.3985 1.36353 30.6575 0.228516 27.7475 0.228516C24.8375 0.228516 22.1087 1.36353 20.0439 3.41622L19.3074 4.15277L18.5708 3.41622C16.5302 1.35146 13.8013 0.228516 10.8913 0.228516C7.98134 0.228516 5.25247 1.36353 3.18771 3.41622C1.13502 5.46891 0 8.20986 0 11.1078C0 14.0057 1.13502 16.7466 3.18771 18.8114C5.31284 20.9365 8.10209 21.9991 10.8913 21.9991C13.6806 21.9991 16.4698 20.9365 18.5949 18.8114L19.3315 18.0748L20.0681 18.8114C22.1932 20.9365 24.9824 21.9991 27.7717 21.9991C30.5609 21.9991 33.3502 20.9365 35.4753 18.8114C39.7256 14.5611 39.7256 7.65442 35.4753 3.41622H35.4512ZM16.3491 16.3482C13.4391 19.2582 8.69374 19.4393 5.69923 16.6259C2.58397 13.6917 2.53568 8.77736 5.53019 5.77078C7.02744 4.27352 9.03183 3.48867 11.1449 3.56112C13.101 3.63356 14.9484 4.50294 16.337 5.87945L16.9649 6.50733L18.7157 8.25815C18.7881 8.36683 18.8606 8.4755 18.9572 8.56002L20.6718 10.2625L18.7036 12.7741L17.0494 11.1198L15.8782 9.9486C15.2261 9.29657 14.1756 9.29657 13.5236 9.9486C12.8716 10.6006 12.8716 11.6511 13.5236 12.3032L16.9649 15.7444L16.3491 16.3602V16.3482ZM32.9517 16.6138C29.9572 19.4513 25.2119 19.2702 22.2898 16.3482L21.674 15.7324L21.1669 15.2252L23.135 12.7016L25.2481 14.7905C25.5862 15.1286 26.0209 15.2856 26.4555 15.2856C26.8902 15.2856 27.337 15.1166 27.6751 14.7785C28.3392 14.1023 28.3392 13.0156 27.6751 12.3515L21.7223 6.44696L22.4105 5.7587C24.0527 4.11655 26.3106 3.31962 28.6652 3.59734C30.0055 3.75431 31.2733 4.27352 32.348 5.0946C36.0911 7.98044 36.2964 13.4382 32.9517 16.6017V16.6138Z" fill="white"/>
</g>
</svg>
