<svg width="102" height="15" viewBox="0 0 102 15" fill="none" xmlns="http://www.w3.org/2000/svg">
<g id="Layer_4">
<path id="Vector" d="M4.79039 14.2311C1.97029 14.2311 -0.103516 12.1358 -0.103516 8.95692C-0.103516 5.77803 1.80525 3.80469 4.81191 3.80469C6.12509 3.80469 7.56742 4.29264 8.43569 5.4336L7.67506 6.25881C6.72068 5.17527 5.45056 4.88106 4.56076 4.88106C2.56588 4.88106 1.14507 6.47409 1.14507 9.03585C1.14507 11.5976 2.92468 13.1691 4.74733 13.1691C6.0605 13.1691 7.26604 12.5735 8.05538 11.7053L8.69402 12.552C7.53154 13.9298 6.27578 14.224 4.79756 14.224L4.79039 14.2311Z" fill="white"/>
<path id="Vector_2" d="M15.3025 14.2285C12.7982 14.2285 10.1934 12.5351 10.1934 8.99021C10.1934 6.27775 11.9945 3.79492 15.3025 3.79492C18.6106 3.79492 20.4117 6.27775 20.4117 8.99021C20.4117 12.5709 17.7208 14.2285 15.3025 14.2285ZM15.3241 4.77801C13.2861 4.77801 11.3845 6.09118 11.3845 8.99738C11.3845 11.5807 12.956 13.2598 15.3456 13.2598C17.6131 13.2598 19.2277 11.5878 19.2277 8.99738C19.2277 6.09118 17.3189 4.77801 15.3312 4.77801H15.3241Z" fill="white"/>
<path id="Vector_3" d="M29.2028 5.64815C28.801 5.2463 28.2269 5.0095 27.5093 5.0095C26.0239 5.0095 24.6462 6.45184 24.6462 7.78654V13.9936H23.498V4.07665H24.6462V5.6625C25.6651 4.19863 26.8061 3.83984 27.6313 3.83984C28.6933 3.83984 29.2243 4.15558 29.7912 4.5359L29.1956 5.64097L29.2028 5.64815Z" fill="white"/>
<path id="Vector_4" d="M31.4549 8.9928C31.5841 12.1286 33.9162 13.1906 35.2725 13.1906C37.2458 13.1906 38.4083 11.9636 38.8317 11.4972L39.5493 12.4515C38.2576 13.6355 37.1525 14.2311 35.2653 14.2311C32.8901 14.2311 30.2207 12.6596 30.2207 9.01432C30.2207 5.36901 32.7609 3.80469 35.1792 3.80469C37.8271 3.80469 39.6928 5.24702 39.6928 8.99997H31.4478L31.4549 8.9928ZM35.2079 4.81648C33.6794 4.81648 31.8783 5.68475 31.5195 7.90925H38.4298C38.3437 6.10812 36.9444 4.81648 35.2079 4.81648Z" fill="white"/>
<path id="Vector_5" d="M51.5051 13.9933V12.2137C51.0602 13.082 49.8331 14.187 47.666 14.187C45.0397 14.187 43.1094 12.3859 43.1094 8.8267C43.1094 6.27929 44.8244 3.80363 47.7091 3.80363C49.7685 3.80363 51.0171 4.80107 51.5051 5.69087V0.423828H52.6317V14.0005H51.5051V13.9933ZM47.7306 4.83695C45.7142 4.83695 44.358 6.48739 44.358 8.97021C44.358 11.3239 45.5061 13.1681 47.8311 13.1681C50.3139 13.1681 51.4333 11.1158 51.4333 8.84105C51.4333 7.21214 50.4574 4.83695 47.7234 4.83695H47.7306Z" fill="white"/>
<path id="Vector_6" d="M59.6502 14.2285C57.1458 14.2285 54.541 12.5351 54.541 8.99021C54.541 6.27775 56.3421 3.79492 59.6502 3.79492C62.9582 3.79492 64.7594 6.27775 64.7594 8.99021C64.7594 12.5709 62.0684 14.2285 59.6502 14.2285ZM59.6717 4.77801C57.6338 4.77801 55.7322 6.09118 55.7322 8.99738C55.7322 11.5807 57.3037 13.2598 59.6932 13.2598C61.9608 13.2598 63.5754 11.5878 63.5754 8.99738C63.5754 6.09118 61.6666 4.77801 59.6717 4.77801Z" fill="white"/>
<path id="Vector_7" d="M70.6201 14.1447C69.4361 14.1447 67.7354 13.6568 67.7354 10.8582V5.00993H66.2285V4.07708H67.7354V0.367188H68.9194V4.07708H70.9933V5.00993H68.9194V10.6501C68.9194 13.0253 70.1034 13.1329 70.9358 13.1329C71.187 13.1329 71.596 13.0684 71.6965 13.0253V13.9797C71.3807 14.1089 70.9574 14.1519 70.6129 14.1519L70.6201 14.1447Z" fill="white"/>
<path id="Vector_8" d="M77.8332 14.0002H76.2617V0.244141H77.8332V14.0002Z" fill="white"/>
<path id="Vector_9" d="M89.4352 14.0013H87.9211V12.4657C87.2537 13.4416 86.0338 14.2381 84.6274 14.2381C81.8934 14.2381 79.8555 11.9992 79.8555 9.2509C79.8555 6.50257 81.8862 4.24219 84.6274 4.24219C86.0338 4.24219 87.2537 5.0387 87.9211 6.00026V4.48616H89.4352V14.0085V14.0013ZM84.6274 5.73476C82.8334 5.73476 81.427 7.32778 81.427 9.26525C81.427 11.2027 82.8334 12.7383 84.6274 12.7383C86.4213 12.7383 87.8637 11.1668 87.8637 9.26525C87.8637 7.36366 86.3855 5.73476 84.6274 5.73476Z" fill="white"/>
<path id="Vector_10" d="M96.8488 14.237C95.4423 14.237 94.2225 13.4405 93.5551 12.4645V14.0002H92.041V0.244141H93.6125V5.9202C94.2942 4.99452 95.4782 4.24107 96.8488 4.24107C99.5828 4.24107 101.599 6.49427 101.599 9.27131C101.599 12.0483 99.5828 14.2441 96.8488 14.2441V14.237ZM96.8488 5.73363C95.0907 5.73363 93.6125 7.32666 93.6125 9.26413C93.6125 11.2016 95.0907 12.7372 96.8488 12.7372C98.6069 12.7372 100.028 11.1657 100.028 9.26413C100.028 7.36254 98.6212 5.73363 96.8488 5.73363Z" fill="white"/>
</g>
</svg>
