<svg width="31" height="31" viewBox="0 0 31 31" fill="none" xmlns="http://www.w3.org/2000/svg">
<g id="linkedin">
<path id="icon" d="M26.4364 0.244141H4.61825C3.53328 0.244141 2.49274 0.675146 1.72554 1.44234C0.958349 2.20953 0.527344 3.25007 0.527344 4.33505L0.527344 26.1532C0.527344 27.2382 0.958349 28.2787 1.72554 29.0459C2.49274 29.8131 3.53328 30.2441 4.61825 30.2441H26.4364C27.5214 30.2441 28.562 29.8131 29.3291 29.0459C30.0963 28.2787 30.5273 27.2382 30.5273 26.1532V4.33505C30.5273 3.25007 30.0963 2.20953 29.3291 1.44234C28.562 0.675146 27.5214 0.244141 26.4364 0.244141ZM10.7546 23.9851C10.7548 24.0682 10.7386 24.1507 10.707 24.2276C10.6753 24.3045 10.6287 24.3744 10.57 24.4333C10.5113 24.4922 10.4415 24.539 10.3646 24.5708C10.2878 24.6027 10.2054 24.6191 10.1222 24.6191H7.42734C7.34401 24.6194 7.26146 24.6031 7.18442 24.5713C7.10739 24.5395 7.0374 24.4928 6.97847 24.4339C6.91955 24.375 6.87285 24.305 6.84106 24.228C6.80928 24.1509 6.79303 24.0684 6.79325 23.9851V12.6873C6.79325 12.5192 6.86006 12.3579 6.97897 12.239C7.09789 12.12 7.25917 12.0532 7.42734 12.0532H10.1222C10.2901 12.0537 10.451 12.1207 10.5695 12.2396C10.688 12.3584 10.7546 12.5194 10.7546 12.6873V23.9851ZM8.77394 10.9828C8.26824 10.9828 7.77391 10.8328 7.35344 10.5519C6.93298 10.2709 6.60526 9.87161 6.41174 9.40441C6.21822 8.93721 6.16759 8.42312 6.26624 7.92715C6.3649 7.43117 6.60841 6.97559 6.96599 6.61802C7.32357 6.26044 7.77915 6.01692 8.27512 5.91827C8.7711 5.81961 9.28519 5.87025 9.75239 6.06377C10.2196 6.25729 10.6189 6.585 10.8999 7.00547C11.1808 7.42593 11.3308 7.92027 11.3308 8.42596C11.3308 9.10407 11.0614 9.75441 10.5819 10.2339C10.1024 10.7134 9.45205 10.9828 8.77394 10.9828ZM24.841 24.0294C24.8412 24.106 24.8263 24.1819 24.7971 24.2527C24.7678 24.3236 24.7249 24.3879 24.6707 24.4421C24.6166 24.4963 24.5522 24.5392 24.4814 24.5684C24.4105 24.5976 24.3346 24.6125 24.258 24.6123H21.3603C21.2837 24.6125 21.2078 24.5976 21.1369 24.5684C21.0661 24.5392 21.0018 24.4963 20.9476 24.4421C20.8934 24.3879 20.8505 24.3236 20.8213 24.2527C20.792 24.1819 20.7771 24.106 20.7773 24.0294V18.7368C20.7773 17.9458 21.0092 15.2731 18.7097 15.2731C16.9285 15.2731 16.5654 17.1021 16.4938 17.9237V24.0362C16.4938 24.1893 16.4336 24.3363 16.3261 24.4454C16.2186 24.5545 16.0725 24.6169 15.9194 24.6191H13.1205C13.0441 24.6191 12.9683 24.604 12.8977 24.5747C12.8271 24.5454 12.7629 24.5024 12.7089 24.4483C12.6549 24.3941 12.6121 24.3299 12.583 24.2591C12.5539 24.1884 12.5391 24.1127 12.5393 24.0362V12.6379C12.5391 12.5614 12.5539 12.4857 12.583 12.4149C12.6121 12.3442 12.6549 12.2799 12.7089 12.2258C12.7629 12.1716 12.8271 12.1287 12.8977 12.0993C12.9683 12.07 13.0441 12.0549 13.1205 12.0549H15.9194C16.074 12.0549 16.2223 12.1164 16.3316 12.2257C16.4409 12.335 16.5023 12.4833 16.5023 12.6379V13.6231C17.1637 12.6294 18.1438 11.8657 20.2353 11.8657C24.8683 11.8657 24.8376 16.1919 24.8376 18.568L24.841 24.0294Z" fill="white"/>
</g>
</svg>
