<svg width="16" height="9" viewBox="0 0 16 9" fill="none" xmlns="http://www.w3.org/2000/svg">
<path id="Vector" d="M1.76469 0.714986C1.69313 0.646313 1.60895 0.592626 1.51696 0.55699C1.42497 0.521354 1.32696 0.504467 1.22855 0.507295C1.13013 0.510122 1.03322 0.532608 0.943359 0.573468C0.853497 0.614328 0.77244 0.672762 0.704816 0.745434C0.637192 0.818106 0.584326 0.903594 0.549235 0.997014C0.514144 1.09044 0.497515 1.18996 0.5003 1.28991C0.503084 1.38985 0.525226 1.48826 0.565461 1.57952C0.605696 1.67078 0.663237 1.75309 0.734799 1.82177L7.48084 8.29193C7.62001 8.42555 7.80427 8.5 7.99579 8.5C8.18731 8.5 8.37157 8.42555 8.51074 8.29193L15.2575 1.82177C15.3307 1.75354 15.3897 1.67125 15.4313 1.57966C15.4728 1.48806 15.496 1.389 15.4995 1.28822C15.5031 1.18744 15.4868 1.08696 15.4518 0.992604C15.4167 0.898249 15.3636 0.811904 15.2954 0.738585C15.2272 0.665266 15.1454 0.606435 15.0546 0.565508C14.9639 0.524581 14.866 0.502375 14.7668 0.50018C14.6675 0.497984 14.5688 0.515842 14.4763 0.552718C14.3839 0.589593 14.2996 0.64475 14.2284 0.714986L7.99579 6.6919L1.76469 0.714986Z" fill="#08B89E"/>
</svg>
